<?xml version="1.0" encoding="UTF-8"?>
<svg id="Logo" xmlns="http://www.w3.org/2000/svg" viewBox="0 0 148 148">
  <defs>
    <style>
      .cls-1 {
        fill: #233159;
      }
    </style>
  </defs>
  <g>
    <g>
      <path class="cls-1" d="M83.58,67.71c4.37-.38,5.08,6.11.69,6.61-4.19.38-5.09-5.86-.91-6.59l.22-.03Z"/>
      <path class="cls-1" d="M65.08,67.69c4.26-.33,5.02,6.03.72,6.61-4.13.35-5.06-5.7-.92-6.58l.2-.03Z"/>
      <path class="cls-1" d="M74.28,67.69c5.28-.31,4.63,7.66-.47,6.49-3.23-.96-2.99-5.77.27-6.45l.2-.04Z"/>
    </g>
    <path class="cls-1" d="M93.51,79.48c-3.44,7.3-11.06,12.24-19.78,11.72-10.21-.61-18.52-8.87-19.18-19.07-.78-11.93,8.67-21.85,20.43-21.85,8.44,0,15.69,5.11,18.82,12.41,1.19,2.77,3.36,5.03,6.19,6.05,2.23.8,3.83.7,3.83.7h3.38c-.69-17.2-14.85-30.94-32.22-30.94-3.32,0-6.53.5-9.55,1.44h0s0,0-.01,0c-.88.27-1.74.59-2.58.93-.06.02-.11.05-.17.07-.1.04-.21.08-.31.13-2.68,1.07-5.54,2.48-7.62,4.19-.04-.51-.06-1.05-.07-1.61-.24-11.1,3.79-30.34-12.59-30.38,0,0,0,15.6,0,30.67,0,14.09,0,27.72,0,27.72.22,8.68,4.3,15.58,8.92,20.66.14.15.28.3.42.45.12.13.24.26.36.39,0,0,0,0,0-.01,5.87,6.08,14.09,9.86,23.21,9.86,17.22,0,31.28-13.49,32.21-30.48h-3.36s-.83-.05-2.12.22c-3.65.76-6.61,3.35-8.2,6.72Z"/>
  </g>
  <g>
    <g>
      <path class="cls-1" d="M47.97,129.96c-.59-.34-1.27-.51-2.03-.51-1.05,0-1.9.33-2.53.99v-4.03l-.1-.06c-.14-.08-.32-.13-.53-.13-.45,0-.71.25-.71.68v6.19c0,.83.16,1.56.47,2.17.32.62.77,1.11,1.36,1.45.58.34,1.27.51,2.04.51s1.42-.17,2.01-.51c.59-.34,1.06-.81,1.41-1.39.35-.59.52-1.26.52-1.99s-.17-1.41-.51-1.99c-.34-.58-.81-1.05-1.4-1.39ZM48.48,133.34c0,.53-.11,1-.32,1.4-.21.4-.51.71-.89.94-.38.22-.82.34-1.32.34s-.94-.11-1.31-.34c-.37-.22-.67-.54-.89-.94-.22-.4-.33-.87-.33-1.4s.11-1.01.33-1.4c.22-.39.52-.71.89-.93.38-.22.82-.34,1.31-.34s.94.11,1.32.34c.38.22.68.54.89.93.21.4.32.87.32,1.41Z"/>
      <path class="cls-1" d="M56.66,129.96c-.6-.34-1.28-.51-2.03-.51s-1.43.17-2.03.51c-.6.33-1.08.8-1.42,1.39s-.52,1.26-.52,2,.18,1.41.52,2c.35.58.82,1.05,1.42,1.39.6.34,1.28.51,2.03.51s1.43-.17,2.03-.51c.6-.34,1.08-.8,1.42-1.39.35-.59.52-1.26.52-2s-.18-1.41-.52-2c-.35-.58-.83-1.05-1.42-1.39ZM57.19,133.34c0,.53-.11,1-.33,1.4-.22.4-.53.72-.91.95-.38.23-.82.34-1.32.34s-.94-.12-1.32-.34c-.38-.23-.69-.55-.91-.95-.22-.4-.33-.87-.33-1.4s.11-1,.33-1.4c.22-.4.53-.72.91-.94.38-.22.82-.34,1.32-.34s.94.11,1.32.34.68.54.9.94c.22.41.33.88.33,1.4Z"/>
      <path class="cls-1" d="M64.96,129.85c-.51-.26-1.13-.39-1.83-.39s-1.3.13-1.82.4c-.53.27-.94.64-1.23,1.12-.29.48-.43,1.04-.43,1.68v4.38h1.34v-4.1c0-.75.18-1.32.54-1.7.36-.37.89-.56,1.59-.56s1.23.19,1.6.57c.37.38.55.95.55,1.69v4.1h1.34v-4.38c0-.65-.15-1.22-.44-1.69-.29-.48-.7-.85-1.23-1.11Z"/>
      <path class="cls-1" d="M77.08,135.58c-.51.29-1.09.44-1.7.44-.84,0-1.51-.24-1.97-.7-.47-.47-.7-1.13-.7-1.98s.22-1.51.67-1.97c.45-.47,1.05-.69,1.83-.69.39,0,.76.06,1.11.17.34.11.62.26.83.44l.13.11.13-.1c.26-.2.39-.43.39-.7,0-.22-.11-.42-.31-.59-.19-.15-.49-.28-.94-.39-.42-.1-.87-.15-1.32-.15-.77,0-1.46.16-2.05.48-.59.32-1.06.77-1.39,1.36-.33.58-.49,1.27-.49,2.07s.16,1.43.47,2.02c.31.59.77,1.05,1.36,1.37.58.32,1.29.48,2.1.48.42,0,.84-.05,1.24-.14.41-.09.82-.25,1.2-.47l.18-.1-.58-1.05-.18.1Z"/>
      <path class="cls-1" d="M84.02,129.96c-.6-.34-1.28-.51-2.03-.51s-1.43.17-2.03.51c-.6.33-1.08.8-1.42,1.39s-.52,1.26-.52,2,.18,1.41.52,2c.35.58.82,1.05,1.42,1.39.6.34,1.28.51,2.03.51s1.43-.17,2.03-.51c.6-.34,1.08-.8,1.42-1.39.35-.59.52-1.26.52-2s-.18-1.41-.52-2c-.35-.58-.83-1.05-1.42-1.39ZM84.55,133.34c0,.53-.11,1-.33,1.4-.22.4-.53.72-.91.95-.38.23-.82.34-1.32.34s-.94-.12-1.32-.34c-.38-.23-.69-.55-.91-.95-.22-.4-.33-.87-.33-1.4s.11-1,.33-1.4c.22-.4.53-.72.91-.94.38-.22.82-.34,1.32-.34s.94.11,1.32.34.68.54.9.94c.22.41.33.88.33,1.4Z"/>
      <path class="cls-1" d="M93.36,129.65c-.45,0-.71.25-.71.68v3.41c0,.74-.18,1.31-.55,1.69-.36.38-.9.57-1.6.57s-1.24-.19-1.59-.57c-.36-.38-.54-.95-.54-1.69v-3.91l-.1-.06c-.14-.08-.32-.13-.53-.13-.45,0-.71.25-.71.68v3.7c0,.64.15,1.2.44,1.68.29.48.7.86,1.22,1.12.52.26,1.13.4,1.81.4s1.31-.13,1.83-.39c.53-.26.94-.64,1.23-1.12.29-.48.43-1.05.43-1.68v-4.19l-.1-.06c-.14-.08-.32-.13-.53-.13Z"/>
      <path class="cls-1" d="M99.77,129.66c-.35-.14-.81-.2-1.36-.2-1.02,0-1.79.24-2.3.72-.52.48-.78,1.17-.78,2.05v4.8h1.34v-4.37c0-.7.14-1.21.43-1.52.28-.3.75-.45,1.4-.45.53,0,.99.1,1.38.29l.12.06.1-.08c.2-.16.3-.37.3-.6,0-.31-.21-.55-.63-.71Z"/>
      <path class="cls-1" d="M104.56,132.73l-1.61-.18c-1.3-.15-1.3-.73-1.3-.92,0-.31.13-.54.42-.7.31-.18.78-.28,1.38-.28.53,0,1.06.07,1.57.21.49.14.85.31,1.07.51l.11.1.13-.07c.14-.07.24-.18.32-.31.07-.13.11-.26.11-.39,0-.28-.17-.51-.51-.71-.29-.16-.67-.3-1.14-.39-.46-.09-.96-.14-1.5-.14-1.02,0-1.83.19-2.4.56-.59.39-.9.94-.9,1.65,0,.61.23,1.1.68,1.48.43.36,1.05.58,1.84.67l1.61.18c1.38.16,1.38.78,1.38.98,0,.33-.15.58-.45.75-.33.2-.83.3-1.49.3-.56,0-1.11-.07-1.63-.2-.51-.13-.94-.3-1.26-.5l-.18-.11-.58,1.06.14.11c.18.14.46.27.86.4.38.12.81.23,1.28.32.47.09.95.13,1.4.13.97,0,1.76-.21,2.36-.62.62-.43.94-1.01.94-1.74,0-1.22-.89-1.93-2.65-2.14Z"/>
    </g>
    <g>
      <g>
        <path class="cls-1" d="M42.36,109.91c-.19-.2-.28-.45-.28-.73s.09-.52.28-.73c.19-.2.43-.31.73-.31s.54.1.73.31c.19.2.28.45.28.73s-.09.52-.28.73c-.19.2-.43.31-.73.31s-.54-.1-.73-.31ZM43.78,123.25h-1.39v-9.69c0-.48.25-.72.76-.72.25,0,.46.05.63.15v10.26Z"/>
        <path class="cls-1" d="M43.9,123.38h-1.64v-9.81c0-.55.31-.84.88-.84.27,0,.51.06.69.16l.06.04v10.46ZM42.51,123.13h1.14v-10.06c-.14-.07-.31-.1-.51-.1-.44,0-.63.18-.63.59v9.56ZM43.08,110.34c-.33,0-.6-.12-.82-.35-.21-.23-.32-.5-.32-.81s.11-.59.32-.81c.21-.23.49-.34.82-.34s.6.12.82.34c.21.23.32.5.32.81s-.11.59-.32.81c-.21.23-.49.34-.82.34ZM43.08,108.28c-.26,0-.47.09-.63.26-.17.18-.25.39-.25.64s.08.46.25.64c.17.18.37.27.63.27s.47-.09.63-.27c.17-.18.25-.39.25-.64s-.08-.46-.25-.64c-.17-.18-.37-.26-.63-.26Z"/>
      </g>
      <g>
        <path class="cls-1" d="M46.5,117.02c0-.9.2-1.68.6-2.35.4-.67.97-1.19,1.71-1.56.74-.37,1.6-.56,2.58-.56s1.86.18,2.59.55c.73.37,1.3.88,1.71,1.55.41.67.61,1.46.61,2.37v6.24h-1.39v-5.81c0-1.19-.3-2.11-.91-2.74-.6-.63-1.47-.95-2.61-.95s-2,.31-2.6.94c-.6.63-.9,1.54-.9,2.75v5.81h-1.39v-6.24Z"/>
        <path class="cls-1" d="M56.42,123.38h-1.64v-5.94c0-1.16-.29-2.05-.87-2.65-.58-.6-1.42-.91-2.52-.91s-1.94.3-2.51.9c-.57.6-.86,1.5-.86,2.66v5.94h-1.64v-6.36c0-.92.21-1.73.62-2.41s1-1.22,1.76-1.61c.75-.38,1.64-.57,2.64-.57s1.9.19,2.65.56c.75.37,1.34.91,1.76,1.59.42.68.63,1.5.63,2.44v6.36ZM55.03,123.13h1.14v-6.11c0-.88-.2-1.66-.59-2.3-.39-.64-.95-1.15-1.66-1.5-.71-.35-1.56-.53-2.54-.53s-1.81.18-2.52.54c-.71.36-1.27.87-1.66,1.51-.39.64-.58,1.41-.58,2.28v6.11h1.14v-5.69c0-1.23.31-2.19.93-2.84.62-.65,1.53-.98,2.69-.98s2.08.33,2.7.99c.62.65.94,1.6.94,2.83v5.69Z"/>
      </g>
      <g>
        <path class="cls-1" d="M67.98,120.33c0,.98-.42,1.77-1.26,2.35-.84.58-1.96.87-3.35.87-.66,0-1.34-.06-2.03-.19-.7-.13-1.32-.28-1.87-.46-.55-.18-.95-.37-1.19-.55l.59-1.07c.51.31,1.16.57,1.96.78.8.21,1.64.32,2.51.32,1.04,0,1.83-.16,2.38-.48.55-.32.82-.79.82-1.39,0-1-.78-1.59-2.34-1.77l-2.4-.27c-1.12-.13-1.99-.44-2.59-.94-.6-.5-.91-1.15-.91-1.97,0-.94.4-1.67,1.2-2.2.8-.53,1.94-.79,3.41-.79.79,0,1.51.07,2.18.2.67.13,1.2.32,1.61.55.41.23.61.5.61.79,0,.14-.04.28-.13.43-.08.15-.2.26-.36.35-.37-.34-.94-.61-1.73-.83s-1.59-.33-2.42-.33c-.96,0-1.69.15-2.21.45-.52.3-.78.74-.78,1.32,0,.96.74,1.52,2.21,1.69l2.4.27c2.46.28,3.69,1.24,3.69,2.89Z"/>
        <path class="cls-1" d="M63.37,123.67c-.67,0-1.36-.06-2.06-.19-.7-.13-1.34-.28-1.89-.47-.57-.19-.98-.38-1.23-.57l-.08-.07.7-1.28.11.07c.49.3,1.14.56,1.93.76s1.62.31,2.47.31c1.01,0,1.79-.16,2.32-.47.51-.3.76-.72.76-1.28,0-.93-.73-1.47-2.23-1.65l-2.4-.27c-1.14-.13-2.04-.45-2.66-.96-.63-.52-.95-1.22-.95-2.07,0-.98.42-1.76,1.26-2.31.82-.54,1.99-.81,3.48-.81.79,0,1.53.07,2.2.2.68.14,1.23.33,1.65.56.45.25.67.56.67.9,0,.16-.05.33-.14.49-.1.17-.23.3-.41.39l-.08.04-.07-.06c-.35-.32-.91-.59-1.68-.8-.77-.21-1.58-.32-2.39-.32-.93,0-1.65.15-2.15.44-.48.28-.72.68-.72,1.21,0,.89.69,1.4,2.1,1.56l2.4.27c2.52.29,3.8,1.3,3.8,3.01,0,1.02-.44,1.85-1.32,2.45-.86.59-2.01.9-3.42.9ZM58.44,122.31c.23.15.59.31,1.07.47.54.18,1.17.33,1.86.46.68.12,1.36.19,2.01.19,1.36,0,2.46-.29,3.28-.85.81-.56,1.21-1.3,1.21-2.25,0-1.58-1.17-2.49-3.58-2.76l-2.4-.27c-1.54-.18-2.32-.78-2.32-1.81,0-.62.28-1.1.84-1.42.54-.31,1.3-.47,2.27-.47.83,0,1.66.11,2.46.33.75.21,1.33.48,1.71.8.1-.07.18-.15.24-.25.07-.13.11-.25.11-.37,0-.25-.18-.47-.55-.68-.39-.22-.92-.4-1.57-.53-.66-.13-1.38-.2-2.16-.2-1.44,0-2.57.26-3.34.77-.77.51-1.14,1.19-1.14,2.1,0,.78.28,1.4.86,1.87.58.48,1.43.79,2.53.91l2.4.27c1.63.19,2.45.83,2.45,1.89,0,.65-.3,1.15-.88,1.5-.57.33-1.39.5-2.44.5-.88,0-1.73-.11-2.54-.32-.75-.2-1.38-.44-1.88-.73l-.47.86Z"/>
      </g>
      <g>
        <path class="cls-1" d="M69.71,110.74c0-.48.25-.72.76-.72.25,0,.46.05.63.15v2.68h3.71c.52,0,.78.23.78.7,0,.18-.04.37-.13.57h-4.36v6.11c0,.69.18,1.22.55,1.59.36.37.89.56,1.58.56.77,0,1.47-.2,2.11-.61l.61.91c-.35.27-.8.48-1.34.64-.54.16-1.09.24-1.65.24-1.01,0-1.8-.27-2.38-.82-.58-.55-.86-1.31-.86-2.28v-9.71Z"/>
        <path class="cls-1" d="M72.95,123.67c-1.04,0-1.87-.29-2.47-.86-.6-.57-.9-1.37-.9-2.37v-9.71c0-.55.31-.84.88-.84.27,0,.51.06.7.16l.06.04v2.62h3.58c.75,0,.9.45.9.82,0,.2-.05.41-.14.62l-.03.08h-4.32v5.98c0,.65.17,1.16.51,1.5.34.35.84.52,1.49.52.74,0,1.43-.2,2.04-.59l.1-.07.75,1.1-.09.07c-.36.28-.83.5-1.38.66-.55.16-1.12.25-1.69.25ZM70.47,110.15c-.44,0-.63.18-.63.59v9.71c0,.93.28,1.66.83,2.18.55.52,1.32.79,2.29.79.55,0,1.09-.08,1.62-.24.48-.14.88-.33,1.2-.55l-.48-.71c-.62.38-1.32.57-2.07.57s-1.28-.2-1.67-.6c-.39-.39-.58-.96-.58-1.68v-6.23h4.4c.06-.15.09-.3.09-.44,0-.39-.2-.57-.65-.57h-3.83v-2.72c-.14-.06-.31-.1-.51-.1Z"/>
      </g>
      <g>
        <path class="cls-1" d="M77.26,109.91c-.19-.2-.28-.45-.28-.73s.09-.52.28-.73c.19-.2.43-.31.73-.31s.54.1.73.31c.19.2.28.45.28.73s-.09.52-.28.73c-.19.2-.43.31-.73.31s-.54-.1-.73-.31ZM78.68,123.25h-1.39v-9.69c0-.48.25-.72.76-.72.25,0,.46.05.63.15v10.26Z"/>
        <path class="cls-1" d="M78.81,123.38h-1.64v-9.81c0-.55.31-.84.88-.84.27,0,.51.06.69.16l.06.04v10.46ZM77.42,123.13h1.14v-10.06c-.14-.06-.31-.1-.51-.1-.44,0-.63.18-.63.59v9.56ZM77.99,110.34c-.33,0-.61-.12-.82-.35-.21-.23-.32-.5-.32-.81s.11-.59.32-.81c.21-.23.49-.34.82-.34s.6.12.82.34c.21.23.32.5.32.81s-.11.59-.32.81c-.21.23-.49.35-.82.35ZM77.99,108.28c-.26,0-.47.09-.64.26-.17.18-.25.39-.25.64s.08.46.25.64c.17.18.38.27.64.27s.47-.09.63-.27c.17-.18.25-.39.25-.64s-.08-.46-.25-.64c-.17-.18-.37-.26-.63-.26Z"/>
      </g>
      <g>
        <path class="cls-1" d="M81.4,110.74c0-.48.25-.72.76-.72.25,0,.46.05.63.15v2.68h3.71c.52,0,.78.23.78.7,0,.18-.04.37-.13.57h-4.36v6.11c0,.69.18,1.22.55,1.59.36.37.89.56,1.58.56.77,0,1.47-.2,2.11-.61l.61.91c-.35.27-.8.48-1.34.64-.54.16-1.09.24-1.65.24-1.01,0-1.8-.27-2.38-.82-.58-.55-.86-1.31-.86-2.28v-9.71Z"/>
        <path class="cls-1" d="M84.65,123.67c-1.04,0-1.87-.29-2.47-.86-.6-.57-.9-1.37-.9-2.37v-9.71c0-.55.31-.84.88-.84.27,0,.51.06.7.16l.06.04v2.62h3.58c.75,0,.91.45.91.82,0,.2-.05.41-.14.62l-.03.08h-4.32v5.98c0,.65.17,1.16.51,1.5.34.35.84.52,1.49.52.74,0,1.43-.2,2.04-.59l.1-.07.75,1.1-.09.07c-.36.27-.82.5-1.38.66-.55.16-1.12.25-1.69.25ZM82.16,110.15c-.44,0-.63.18-.63.59v9.71c0,.93.28,1.66.83,2.18.55.52,1.32.79,2.29.79.55,0,1.09-.08,1.62-.24.48-.14.88-.33,1.2-.55l-.48-.71c-.62.38-1.32.57-2.07.57s-1.28-.2-1.67-.6c-.39-.39-.58-.96-.58-1.68v-6.23h4.4c.06-.15.09-.3.09-.44,0-.39-.2-.57-.66-.57h-3.83v-2.72c-.14-.06-.31-.1-.51-.1Z"/>
      </g>
      <g>
        <path class="cls-1" d="M98.36,119.08c0,.9-.2,1.69-.6,2.36s-.97,1.19-1.71,1.56c-.74.37-1.6.55-2.6.55s-1.84-.19-2.57-.56c-.73-.37-1.3-.89-1.71-1.56-.41-.67-.61-1.45-.61-2.35v-5.52c0-.48.25-.72.76-.72.25,0,.46.05.63.15v5.67c0,1.19.3,2.11.9,2.74s1.46.95,2.6.95,2.01-.32,2.61-.95c.6-.63.91-1.54.91-2.74v-5.1c0-.48.25-.72.76-.72.25,0,.46.05.63.15v6.09Z"/>
        <path class="cls-1" d="M93.45,123.67c-1,0-1.88-.19-2.63-.57-.75-.38-1.34-.92-1.76-1.61s-.63-1.5-.63-2.41v-5.52c0-.55.31-.84.88-.84.27,0,.51.06.69.16l.06.04v5.74c0,1.16.29,2.05.86,2.65.57.6,1.41.91,2.51.91s1.94-.31,2.52-.91c.58-.61.87-1.5.87-2.65v-5.1c0-.55.31-.84.88-.84.27,0,.51.06.69.16l.06.04v6.16c0,.92-.21,1.73-.62,2.42-.41.69-1,1.23-1.76,1.61-.75.37-1.65.56-2.66.56ZM89.32,112.97c-.44,0-.63.18-.63.59v5.52c0,.87.2,1.64.59,2.28.39.65.95,1.15,1.66,1.51.71.36,1.55.54,2.51.54s1.83-.18,2.55-.54c.71-.35,1.27-.86,1.65-1.51.39-.65.58-1.42.58-2.3v-6.01c-.14-.07-.31-.1-.51-.1-.44,0-.63.18-.63.59v5.1c0,1.22-.32,2.17-.94,2.82-.63.66-1.54.99-2.7.99s-2.07-.33-2.69-.99c-.62-.65-.93-1.6-.93-2.82v-5.59c-.14-.07-.31-.1-.51-.1Z"/>
      </g>
      <g>
        <path class="cls-1" d="M100.97,110.74c0-.48.25-.72.76-.72.25,0,.46.05.63.15v2.68h3.71c.52,0,.78.23.78.7,0,.18-.04.37-.13.57h-4.36v6.11c0,.69.18,1.22.55,1.59.36.37.89.56,1.58.56.77,0,1.47-.2,2.11-.61l.61.91c-.35.27-.8.48-1.34.64-.54.16-1.09.24-1.65.24-1.01,0-1.8-.27-2.38-.82-.58-.55-.86-1.31-.86-2.28v-9.71Z"/>
        <path class="cls-1" d="M104.22,123.67c-1.04,0-1.87-.29-2.47-.86-.6-.57-.9-1.37-.9-2.37v-9.71c0-.55.31-.84.88-.84.28,0,.51.06.7.17l.06.04v2.62h3.58c.75,0,.9.45.9.82,0,.2-.05.41-.14.62l-.03.08h-4.32v5.98c0,.65.17,1.16.51,1.5s.84.52,1.49.52c.74,0,1.43-.2,2.04-.59l.1-.07.75,1.1-.09.07c-.36.27-.83.5-1.38.66-.55.16-1.12.25-1.69.25ZM101.73,110.15c-.44,0-.63.18-.63.59v9.71c0,.93.28,1.67.82,2.18.55.52,1.32.79,2.29.79.55,0,1.09-.08,1.62-.24.48-.14.88-.33,1.2-.55l-.48-.71c-.62.38-1.32.57-2.07.57s-1.28-.2-1.67-.6c-.39-.39-.58-.96-.58-1.68v-6.23h4.4c.06-.15.09-.3.09-.44,0-.39-.2-.57-.65-.57h-3.83v-2.72c-.14-.06-.31-.1-.51-.1Z"/>
      </g>
    </g>
  </g>
</svg>