<?xml version="1.0" encoding="UTF-8"?>
<svg id="Logo" xmlns="http://www.w3.org/2000/svg" viewBox="0 0 162.79 108.53">
  <defs>
    <style>
      .cls-1 {
        fill: #ffd5b0;
      }
    </style>
  </defs>
  <g>
    <g>
      <path class="cls-1" d="M131.18,58.78c1.61-.14,1.87,2.25.25,2.43-1.54.14-1.87-2.15-.33-2.42h.08Z"/>
      <path class="cls-1" d="M124.38,58.77c1.57-.12,1.85,2.22.27,2.43-1.52.13-1.86-2.1-.34-2.42h.07Z"/>
      <path class="cls-1" d="M127.76,58.78c1.94-.12,1.71,2.82-.17,2.39-1.19-.35-1.1-2.12.1-2.37h.07Z"/>
    </g>
    <path class="cls-1" d="M134.84,63.11c-1.27,2.69-4.07,4.5-7.28,4.31-3.76-.22-6.81-3.26-7.06-7.02-.29-4.39,3.19-8.04,7.52-8.04,3.11,0,5.77,1.88,6.93,4.57.44,1.02,1.23,1.85,2.28,2.23.82.29,1.41.26,1.41.26h1.24c-.25-6.33-5.46-11.39-11.86-11.39-1.22,0-2.4.19-3.51.53h0s0,0,0,0c-.32.1-.64.22-.95.34-.02,0-.04.02-.06.02-.04.02-.08.03-.12.05-.99.39-2.04.91-2.8,1.54-.01-.19-.02-.39-.03-.59-.09-4.09,1.4-11.16-4.63-11.18,0,0,0,5.74,0,11.28,0,5.18,0,10.2,0,10.2.08,3.2,1.58,5.73,3.28,7.6.05.06.1.11.15.17.04.05.09.1.13.14,0,0,0,0,0,0,2.16,2.24,5.19,3.63,8.54,3.63,6.34,0,11.51-4.96,11.85-11.22h-1.24s-.3-.02-.78.08c-1.34.28-2.43,1.23-3.02,2.47Z"/>
  </g>
  <g>
    <g>
      <path class="cls-1" d="M40.56,63.52c-.67-.38-1.44-.58-2.3-.58-1.2,0-2.16.38-2.87,1.12v-4.58l-.12-.07c-.16-.1-.37-.14-.6-.14-.51,0-.81.28-.81.78v7.03c0,.94.18,1.77.54,2.47.36.7.88,1.26,1.54,1.64.66.38,1.44.58,2.32.58s1.62-.19,2.29-.58c.67-.38,1.21-.91,1.6-1.58.39-.67.59-1.43.59-2.26s-.2-1.6-.58-2.26c-.39-.66-.92-1.19-1.59-1.57ZM41.13,67.36c0,.6-.12,1.13-.36,1.59-.24.45-.58.81-1.01,1.06-.43.25-.94.38-1.5.38s-1.07-.13-1.49-.38c-.43-.25-.77-.61-1.01-1.06-.25-.45-.37-.99-.37-1.59s.12-1.15.37-1.59c.25-.45.59-.8,1.01-1.06.43-.25.93-.38,1.49-.38s1.07.13,1.5.38c.43.25.77.61,1.01,1.06.24.45.36.99.36,1.6Z"/>
      <path class="cls-1" d="M50.42,63.52c-.68-.38-1.45-.57-2.3-.57s-1.62.19-2.3.57c-.68.38-1.22.91-1.62,1.57s-.59,1.43-.59,2.27.2,1.6.59,2.27c.39.66.94,1.19,1.62,1.57.68.38,1.45.57,2.3.57s1.62-.19,2.3-.57c.68-.38,1.22-.91,1.61-1.57.39-.66.59-1.43.59-2.27s-.2-1.6-.59-2.27c-.39-.66-.94-1.19-1.62-1.57ZM51.03,67.36c0,.6-.13,1.13-.38,1.59-.25.45-.6.81-1.03,1.07-.43.26-.94.39-1.5.39s-1.07-.13-1.5-.39c-.43-.26-.78-.62-1.03-1.07-.25-.45-.38-.99-.38-1.59s.13-1.13.38-1.59c.25-.46.6-.82,1.03-1.07.43-.25.93-.38,1.5-.38s1.07.13,1.5.38.78.62,1.03,1.07c.25.46.38,1,.38,1.59Z"/>
      <path class="cls-1" d="M59.85,63.39c-.58-.29-1.28-.44-2.07-.44s-1.47.15-2.07.45c-.6.3-1.07.73-1.39,1.27-.33.54-.49,1.18-.49,1.91v4.97h1.52v-4.65c0-.85.21-1.5.62-1.93.41-.43,1.02-.64,1.81-.64s1.4.21,1.82.65c.41.43.62,1.08.62,1.92v4.65h1.52v-4.97c0-.73-.17-1.38-.5-1.92-.33-.54-.8-.97-1.39-1.26Z"/>
      <path class="cls-1" d="M73.62,69.9c-.58.33-1.23.5-1.94.5-.96,0-1.71-.27-2.24-.8-.53-.53-.8-1.29-.8-2.25s.26-1.71.76-2.23c.51-.53,1.19-.79,2.08-.79.44,0,.87.06,1.26.19.38.12.7.29.94.5l.14.13.15-.12c.29-.23.44-.49.44-.79,0-.25-.12-.48-.36-.68-.21-.17-.56-.32-1.06-.44-.48-.12-.99-.17-1.5-.17-.88,0-1.66.18-2.33.54-.67.36-1.2.88-1.57,1.54-.37.66-.56,1.45-.56,2.35s.18,1.63.53,2.29c.36.67.88,1.19,1.54,1.56.66.37,1.47.55,2.39.55.47,0,.95-.05,1.41-.16.47-.11.93-.28,1.36-.53l.2-.11-.66-1.19-.2.12Z"/>
      <path class="cls-1" d="M81.5,63.52c-.68-.38-1.45-.57-2.3-.57s-1.62.19-2.3.57c-.68.38-1.22.91-1.62,1.57s-.59,1.43-.59,2.27.2,1.6.59,2.27c.39.66.94,1.19,1.62,1.57.68.38,1.45.57,2.3.57s1.62-.19,2.3-.57c.68-.38,1.22-.91,1.61-1.57.39-.66.59-1.43.59-2.27s-.2-1.6-.59-2.27c-.39-.66-.94-1.19-1.62-1.57ZM82.1,67.36c0,.6-.13,1.13-.38,1.59-.25.45-.6.81-1.03,1.07-.43.26-.94.39-1.5.39s-1.07-.13-1.5-.39c-.43-.26-.78-.62-1.03-1.07-.25-.45-.38-.99-.38-1.59s.13-1.13.38-1.59c.25-.46.6-.82,1.03-1.07.43-.25.93-.38,1.5-.38s1.07.13,1.5.38.78.62,1.03,1.07c.25.46.38,1,.38,1.59Z"/>
      <path class="cls-1" d="M92.1,63.17c-.51,0-.81.28-.81.78v3.88c0,.84-.21,1.49-.62,1.92-.41.43-1.02.65-1.82.65s-1.4-.22-1.81-.65c-.41-.43-.62-1.08-.62-1.92v-4.44l-.12-.07c-.16-.1-.37-.14-.6-.14-.51,0-.81.28-.81.78v4.2c0,.72.17,1.37.5,1.91.33.54.8.97,1.39,1.27.59.3,1.28.45,2.06.45s1.49-.15,2.08-.44c.6-.3,1.07-.72,1.39-1.27.32-.55.49-1.19.49-1.91v-4.76l-.12-.07c-.16-.1-.36-.14-.6-.14Z"/>
      <path class="cls-1" d="M99.38,63.18c-.4-.15-.92-.23-1.54-.23-1.16,0-2.04.27-2.62.82-.59.54-.88,1.33-.88,2.33v5.45h1.52v-4.96c0-.8.16-1.38.48-1.72.32-.34.85-.51,1.59-.51.6,0,1.13.11,1.56.33l.13.07.12-.09c.22-.18.34-.42.34-.68,0-.35-.24-.62-.71-.8Z"/>
      <path class="cls-1" d="M104.82,66.66l-1.83-.21c-1.47-.17-1.47-.83-1.47-1.05,0-.36.15-.61.48-.8.36-.21.88-.31,1.56-.31.61,0,1.2.08,1.78.24.56.15.97.35,1.22.58l.12.11.15-.08c.16-.08.28-.2.36-.35.08-.15.13-.3.13-.44,0-.31-.2-.58-.58-.8-.33-.19-.76-.34-1.29-.44-.52-.1-1.1-.16-1.7-.16-1.16,0-2.08.22-2.72.64-.67.44-1.02,1.07-1.02,1.87,0,.69.26,1.25.77,1.68.49.41,1.2.66,2.09.76l1.83.21c1.57.18,1.57.88,1.57,1.11,0,.37-.17.65-.51.86-.38.22-.95.34-1.69.34-.64,0-1.26-.08-1.85-.23-.58-.15-1.06-.34-1.43-.57l-.21-.13-.66,1.21.16.12c.21.16.52.31.97.45.43.14.92.26,1.46.36.54.1,1.07.15,1.59.15,1.1,0,2-.24,2.68-.71.7-.49,1.06-1.15,1.06-1.98,0-1.38-1.01-2.2-3.01-2.43Z"/>
    </g>
    <g>
      <g>
        <path class="cls-1" d="M34.18,40.75c-.22-.23-.32-.51-.32-.83s.11-.59.32-.83c.22-.23.49-.35.83-.35s.61.12.83.35c.22.23.32.51.32.83s-.11.59-.32.83c-.22.23-.49.35-.83.35s-.61-.12-.83-.35ZM35.8,55.9h-1.58v-11c0-.54.29-.81.86-.81.29,0,.53.06.72.17v11.65Z"/>
        <path class="cls-1" d="M35.92,56.03h-1.83v-11.13c0-.61.34-.94.99-.94.31,0,.57.06.78.18l.06.04v11.85ZM34.34,55.78h1.33v-11.45c-.16-.08-.36-.12-.59-.12-.5,0-.74.22-.74.69v10.88ZM35.01,41.22c-.37,0-.68-.13-.92-.39h0c-.24-.25-.36-.56-.36-.91s.12-.66.36-.91c.24-.26.55-.39.92-.39s.68.13.92.39c.24.25.36.56.36.91s-.12.66-.36.91c-.24.26-.55.39-.92.39ZM35.01,38.88c-.3,0-.54.1-.73.31-.19.21-.29.45-.29.74s.09.53.29.74h0c.19.21.43.31.73.31s.54-.1.73-.31c.2-.21.29-.45.29-.74s-.09-.53-.29-.74c-.19-.21-.43-.31-.73-.31Z"/>
      </g>
      <g>
        <path class="cls-1" d="M38.88,48.82c0-1.02.23-1.91.68-2.67.45-.76,1.1-1.35,1.94-1.77.84-.42,1.81-.63,2.93-.63s2.11.21,2.94.62c.83.41,1.48,1,1.94,1.76.46.76.69,1.65.69,2.69v7.08h-1.58v-6.6c0-1.36-.34-2.39-1.03-3.11-.69-.72-1.67-1.08-2.97-1.08s-2.28.36-2.95,1.06c-.68.71-1.02,1.75-1.02,3.12v6.6h-1.58v-7.08Z"/>
        <path class="cls-1" d="M50.13,56.03h-1.83v-6.73c0-1.32-.33-2.33-1-3.02-.66-.69-1.62-1.04-2.88-1.04s-2.21.35-2.86,1.03c-.65.68-.98,1.7-.98,3.04v6.73h-1.83v-7.21c0-1.04.24-1.96.7-2.73.46-.77,1.13-1.39,1.99-1.82.85-.43,1.86-.65,2.99-.65s2.16.21,3,.64c.85.42,1.52,1.03,1.99,1.8.47.77.71,1.7.71,2.76v7.21ZM48.55,55.78h1.33v-6.96c0-1.01-.23-1.89-.67-2.63-.45-.73-1.08-1.31-1.89-1.71-.81-.4-1.78-.61-2.89-.61s-2.06.21-2.87.62c-.81.41-1.45.99-1.89,1.72-.44.73-.67,1.61-.67,2.6v6.96h1.33v-6.48c0-1.4.35-2.48,1.05-3.21.7-.73,1.72-1.1,3.04-1.1s2.35.38,3.06,1.12c.71.74,1.06,1.81,1.06,3.2v6.48Z"/>
      </g>
      <g>
        <path class="cls-1" d="M63.28,52.58c0,1.12-.48,2.01-1.44,2.67-.96.66-2.22.99-3.8.99-.75,0-1.52-.07-2.31-.22-.79-.14-1.5-.32-2.13-.53-.63-.21-1.08-.41-1.35-.62l.67-1.22c.57.35,1.32.65,2.22.89.91.24,1.86.36,2.85.36,1.18,0,2.08-.18,2.7-.55.62-.37.93-.89.93-1.58,0-1.13-.89-1.8-2.66-2.01l-2.73-.31c-1.28-.14-2.26-.5-2.94-1.06-.69-.57-1.03-1.31-1.03-2.24,0-1.07.45-1.9,1.36-2.5.91-.6,2.2-.9,3.88-.9.89,0,1.72.08,2.48.23.76.15,1.37.36,1.83.62.46.26.69.56.69.9,0,.16-.05.32-.14.49-.1.17-.23.3-.41.39-.41-.38-1.07-.7-1.96-.94s-1.81-.37-2.75-.37c-1.08,0-1.92.17-2.51.51-.59.34-.89.84-.89,1.5,0,1.08.84,1.72,2.51,1.91l2.73.31c2.79.32,4.19,1.41,4.19,3.28Z"/>
        <path class="cls-1" d="M58.04,56.36c-.75,0-1.54-.07-2.33-.22-.8-.15-1.52-.32-2.15-.53-.65-.21-1.11-.42-1.39-.64l-.08-.07.78-1.43.11.07c.56.34,1.3.64,2.19.87.89.24,1.84.35,2.81.35,1.15,0,2.04-.18,2.64-.53.59-.35.87-.83.87-1.47,0-1.07-.83-1.68-2.54-1.89l-2.73-.31c-1.29-.15-2.31-.51-3.01-1.09-.71-.59-1.08-1.37-1.08-2.33,0-1.11.48-1.98,1.42-2.6.92-.61,2.25-.92,3.94-.92.89,0,1.74.08,2.5.23.77.15,1.4.37,1.87.64.5.29.76.62.76,1.01,0,.18-.05.37-.16.55-.11.19-.26.34-.46.44l-.08.04-.07-.06c-.4-.37-1.04-.67-1.91-.92-.88-.24-1.79-.37-2.72-.37-1.06,0-1.88.17-2.45.5-.55.32-.82.78-.82,1.39,0,1.02.79,1.6,2.4,1.79l2.73.31c2.85.33,4.3,1.47,4.3,3.4,0,1.15-.5,2.09-1.49,2.77-.97.67-2.28,1.01-3.88,1.01ZM52.42,54.84c.26.18.68.36,1.23.54.62.2,1.33.38,2.11.52.78.14,1.55.21,2.29.21,1.55,0,2.8-.33,3.73-.97.92-.63,1.38-1.5,1.38-2.56,0-1.81-1.33-2.84-4.08-3.15l-2.73-.31c-1.74-.2-2.62-.88-2.62-2.04,0-.7.32-1.24.95-1.6.61-.35,1.47-.53,2.58-.53.95,0,1.88.13,2.78.38.86.24,1.51.54,1.94.91.12-.08.21-.18.28-.3.08-.15.13-.29.13-.43,0-.28-.21-.55-.63-.79-.45-.25-1.05-.46-1.79-.61-.75-.15-1.57-.22-2.45-.22-1.64,0-2.92.29-3.81.88-.88.58-1.31,1.36-1.31,2.4,0,.89.32,1.59.98,2.14.66.55,1.63.9,2.88,1.04l2.73.31c1.83.21,2.77.93,2.77,2.13,0,.73-.33,1.3-.99,1.69-.64.38-1.57.57-2.77.57-1,0-1.96-.12-2.88-.36-.86-.23-1.58-.51-2.15-.83l-.55,1.01Z"/>
      </g>
      <g>
        <path class="cls-1" d="M65.24,41.69c0-.54.29-.81.86-.81.29,0,.53.06.72.17v3.04h4.21c.59,0,.89.26.89.79,0,.21-.05.42-.14.65h-4.95v6.94c0,.78.21,1.38.62,1.81.41.42,1.01.63,1.79.63.88,0,1.67-.23,2.39-.69l.69,1.03c-.4.3-.91.55-1.52.73-.61.18-1.24.28-1.88.28-1.15,0-2.05-.31-2.7-.93-.65-.62-.98-1.48-.98-2.58v-11.03Z"/>
        <path class="cls-1" d="M68.93,56.36c-1.18,0-2.12-.33-2.79-.97-.68-.64-1.02-1.54-1.02-2.67v-11.03c0-.61.34-.94.99-.94.31,0,.57.06.78.18l.06.04v2.98h4.09c.83,0,1.01.5,1.01.91,0,.22-.05.46-.15.7l-.03.08h-4.91v6.81c0,.75.2,1.32.59,1.72.39.4.96.6,1.71.6.85,0,1.63-.23,2.33-.67l.1-.07.83,1.23-.09.07c-.41.31-.93.56-1.56.75-.62.19-1.27.28-1.91.28ZM66.11,41.01c-.5,0-.74.22-.74.69v11.03c0,1.06.32,1.9.94,2.49.63.6,1.51.9,2.62.9.62,0,1.24-.09,1.84-.27.55-.16,1.01-.38,1.38-.64l-.56-.83c-.71.43-1.5.65-2.36.65s-1.45-.23-1.88-.67c-.44-.44-.66-1.08-.66-1.89v-7.06h4.99c.07-.18.1-.35.1-.52,0-.45-.24-.66-.76-.66h-4.34v-3.09c-.16-.08-.36-.12-.59-.12Z"/>
      </g>
      <g>
        <path class="cls-1" d="M73.82,40.75c-.22-.23-.32-.51-.32-.83s.11-.59.32-.83c.22-.23.49-.35.83-.35s.61.12.83.35c.22.23.32.51.32.83s-.11.59-.32.83c-.22.23-.49.35-.83.35s-.61-.12-.83-.35ZM75.44,55.9h-1.58v-11c0-.54.29-.81.86-.81.29,0,.53.06.72.17v11.65Z"/>
        <path class="cls-1" d="M75.56,56.03h-1.83v-11.13c0-.61.34-.94.99-.94.31,0,.57.06.78.18l.06.04v11.85ZM73.98,55.78h1.33v-11.45c-.16-.08-.36-.12-.59-.12-.5,0-.74.22-.74.69v10.88ZM74.65,41.22c-.37,0-.68-.13-.92-.39h0c-.24-.25-.36-.56-.36-.91s.12-.66.36-.91c.24-.26.55-.39.92-.39s.68.13.92.39c.24.25.36.56.36.91s-.12.66-.36.91c-.24.26-.55.39-.92.39ZM73.91,40.66c.19.21.43.31.73.31s.54-.1.73-.31c.2-.21.29-.45.29-.74s-.09-.53-.29-.74c-.19-.21-.43-.31-.73-.31s-.54.1-.73.31c-.19.21-.29.45-.29.74s.09.53.29.74h0Z"/>
      </g>
      <g>
        <path class="cls-1" d="M78.52,41.69c0-.54.29-.81.86-.81.29,0,.53.06.72.17v3.04h4.21c.59,0,.89.26.89.79,0,.21-.05.42-.14.65h-4.95v6.94c0,.78.21,1.38.62,1.81.41.42,1.01.63,1.79.63.88,0,1.67-.23,2.39-.69l.69,1.03c-.4.3-.91.55-1.52.73-.61.18-1.24.28-1.88.28-1.15,0-2.05-.31-2.7-.93-.65-.62-.98-1.48-.98-2.58v-11.03Z"/>
        <path class="cls-1" d="M82.21,56.36c-1.18,0-2.11-.33-2.79-.97-.68-.64-1.02-1.54-1.02-2.67v-11.03c0-.61.34-.94.99-.94.31,0,.57.06.78.18l.06.04v2.98h4.08c.83,0,1.01.5,1.01.91,0,.22-.05.46-.15.7l-.03.08h-4.91v6.81c0,.75.2,1.32.59,1.72.39.4.96.6,1.71.6.85,0,1.63-.23,2.32-.67l.1-.07.83,1.23-.09.07c-.41.31-.93.56-1.56.75s-1.27.28-1.91.28ZM79.38,41.01c-.5,0-.74.22-.74.69v11.03c0,1.06.32,1.9.94,2.49.63.6,1.51.9,2.62.9.62,0,1.24-.09,1.84-.27.55-.16,1.01-.38,1.38-.64l-.56-.83c-.71.43-1.5.65-2.36.65s-1.45-.23-1.88-.67c-.44-.44-.66-1.08-.66-1.89v-7.06h4.99c.07-.18.1-.35.1-.52,0-.45-.24-.66-.76-.66h-4.33v-3.09c-.16-.08-.36-.12-.59-.12Z"/>
      </g>
      <g>
        <path class="cls-1" d="M97.78,51.17c0,1.02-.23,1.91-.68,2.68s-1.1,1.36-1.94,1.77c-.84.41-1.82.62-2.95.62s-2.09-.21-2.92-.63c-.83-.42-1.48-1.01-1.94-1.77-.46-.76-.69-1.65-.69-2.67v-6.27c0-.54.29-.81.86-.81.29,0,.53.06.72.17v6.44c0,1.36.34,2.39,1.02,3.11s1.66,1.08,2.95,1.08,2.28-.36,2.97-1.08c.69-.72,1.03-1.75,1.03-3.11v-5.79c0-.54.29-.81.86-.81.29,0,.53.06.72.17v6.91Z"/>
        <path class="cls-1" d="M92.21,56.36c-1.13,0-2.13-.22-2.98-.65-.85-.43-1.52-1.04-1.99-1.82-.47-.77-.71-1.69-.71-2.73v-6.27c0-.61.34-.94.99-.94.31,0,.57.06.78.18l.06.04v6.51c0,1.32.33,2.33.98,3.02.65.69,1.61,1.04,2.86,1.04s2.22-.35,2.88-1.04c.66-.69.99-1.71.99-3.02v-5.79c0-.61.34-.94.99-.94.31,0,.57.06.78.18l.06.04v6.99c0,1.04-.24,1.96-.7,2.74-.46.78-1.13,1.4-1.99,1.82-.85.42-1.86.64-3.01.64ZM87.52,44.21c-.5,0-.74.22-.74.69v6.27c0,.99.23,1.87.67,2.6.45.73,1.08,1.31,1.89,1.72.81.41,1.77.62,2.86.62s2.08-.21,2.9-.61c.81-.4,1.45-.98,1.89-1.72.44-.74.66-1.62.66-2.62v-6.84c-.16-.08-.36-.12-.59-.12-.5,0-.74.22-.74.69v5.79c0,1.38-.36,2.46-1.06,3.2-.71.74-1.74,1.12-3.06,1.12s-2.35-.38-3.05-1.12c-.7-.74-1.05-1.81-1.05-3.2v-6.36c-.16-.08-.36-.12-.59-.12Z"/>
      </g>
      <g>
        <path class="cls-1" d="M100.74,41.69c0-.54.29-.81.86-.81.29,0,.53.06.72.17v3.04h4.21c.59,0,.89.26.89.79,0,.21-.05.42-.14.65h-4.95v6.94c0,.78.21,1.38.62,1.81.41.42,1.01.63,1.79.63.88,0,1.67-.23,2.39-.69l.69,1.03c-.4.3-.91.55-1.52.73-.61.18-1.24.28-1.88.28-1.15,0-2.05-.31-2.7-.93-.65-.62-.98-1.48-.98-2.58v-11.03Z"/>
        <path class="cls-1" d="M104.43,56.36c-1.18,0-2.11-.33-2.79-.97-.68-.64-1.02-1.54-1.02-2.67v-11.03c0-.61.34-.94.99-.94.31,0,.57.06.78.18l.06.04v2.98h4.09c.83,0,1.01.5,1.01.91,0,.22-.05.46-.15.7l-.03.08h-4.91v6.81c0,.75.2,1.32.59,1.72.39.4.96.6,1.71.6.85,0,1.63-.23,2.33-.67l.1-.07.83,1.23-.09.07c-.41.31-.93.56-1.56.75-.62.19-1.27.28-1.91.28ZM101.61,41.01c-.5,0-.74.22-.74.69v11.03c0,1.06.32,1.9.94,2.49.63.6,1.51.9,2.62.9.62,0,1.24-.09,1.84-.27.55-.16,1.01-.38,1.38-.64l-.56-.83c-.71.43-1.5.65-2.36.65s-1.45-.23-1.88-.67c-.44-.44-.66-1.08-.66-1.89v-7.06h4.99c.07-.18.1-.35.1-.52,0-.45-.24-.66-.76-.66h-4.34v-3.09c-.16-.08-.36-.12-.59-.12Z"/>
      </g>
    </g>
  </g>
</svg>