<?xml version="1.0" encoding="UTF-8"?>
<svg id="Logo" xmlns="http://www.w3.org/2000/svg" viewBox="0 0 148 148">
  <defs>
    <style>
      .cls-1 {
        fill: #ffd5b0;
      }
    </style>
  </defs>
  <g>
    <path class="cls-1" d="M85.76,86.9c6.08-.53,7.07,8.5.96,9.2-5.83.53-7.08-8.14-1.26-9.16l.3-.04Z"/>
    <path class="cls-1" d="M60.03,86.87c5.92-.45,6.98,8.38,1.01,9.2-5.75.48-7.04-7.93-1.29-9.16l.28-.04Z"/>
    <path class="cls-1" d="M72.82,86.88c7.34-.44,6.45,10.66-.66,9.02-4.49-1.34-4.16-8.03.38-8.97l.28-.05Z"/>
  </g>
  <path class="cls-1" d="M99.58,103.27c-4.78,10.15-15.39,17.02-27.51,16.3-14.2-.84-25.75-12.33-26.68-26.52-1.08-16.59,12.06-30.38,28.42-30.38,11.74,0,21.82,7.11,26.18,17.26,1.65,3.85,4.67,7,8.61,8.42,3.1,1.11,5.33.97,5.33.97h4.7c-.96-23.93-20.65-43.04-44.82-43.04-4.62,0-9.08.7-13.28,2h0s-.01,0-.02,0c-1.22.38-2.42.82-3.59,1.29-.08.03-.16.06-.24.09-.15.06-.29.12-.44.18-3.73,1.49-7.71,3.45-10.6,5.83-.05-.71-.08-1.46-.1-2.24-.34-15.44,5.28-42.19-17.51-42.25,0,0,0,21.69,0,42.65,0,19.6,0,38.55,0,38.55.31,12.08,5.98,21.66,12.41,28.74.19.21.39.42.58.63.17.18.34.37.51.54,0,0,0-.01,0-.02,8.16,8.45,19.6,13.72,32.28,13.72,23.95,0,43.51-18.76,44.79-42.39h-4.67s-1.15-.07-2.94.3c-5.08,1.06-9.19,4.65-11.4,9.35Z"/>
</svg>