<?xml version="1.0" encoding="UTF-8"?>
<svg id="Logo" xmlns="http://www.w3.org/2000/svg" viewBox="0 0 148 148">
  <defs>
    <style>
      .cls-1 {
        fill: #233159;
      }
    </style>
  </defs>
  <g>
    <g>
      <path class="cls-1" d="M82.77,48.71c3-.26,3.49,4.19.47,4.54-2.87.26-3.49-4.02-.62-4.52l.15-.02Z"/>
      <path class="cls-1" d="M70.08,48.7c2.92-.22,3.44,4.13.5,4.53-2.84.24-3.47-3.91-.63-4.51l.14-.02Z"/>
      <path class="cls-1" d="M76.39,48.71c3.62-.21,3.18,5.26-.32,4.45-2.21-.66-2.05-3.96.19-4.42l.14-.03Z"/>
    </g>
    <path class="cls-1" d="M89.58,56.79c-2.36,5.01-7.59,8.39-13.56,8.04-7-.42-12.7-6.08-13.15-13.08-.53-8.18,5.94-14.98,14.01-14.98,5.79,0,10.76,3.51,12.91,8.51.81,1.9,2.3,3.45,4.25,4.15,1.53.55,2.63.48,2.63.48h2.32c-.47-11.8-10.18-21.22-22.1-21.22-2.28,0-4.48.35-6.55.99h0s0,0,0,0c-.6.19-1.19.4-1.77.64-.04.02-.08.03-.12.05-.07.03-.14.06-.22.09-1.84.74-3.8,1.7-5.23,2.87-.03-.35-.04-.72-.05-1.1-.17-7.61,2.6-20.8-8.63-20.83,0,0,0,10.69,0,21.03,0,9.66,0,19.01,0,19.01.15,5.96,2.95,10.68,6.12,14.17.09.1.19.21.29.31.08.09.17.18.25.27,0,0,0,0,0,0,4.02,4.17,9.66,6.76,15.91,6.76,11.81,0,21.45-9.25,22.09-20.9h-2.3s-.57-.03-1.45.15c-2.51.52-4.53,2.29-5.62,4.61Z"/>
  </g>
  <g>
    <g>
      <path class="cls-1" d="M22.86,122.05c-1.13-.64-2.43-.97-3.87-.97-2.01,0-3.63.63-4.84,1.89v-7.71l-.19-.11c-.28-.16-.61-.24-1.01-.24-.87,0-1.36.48-1.36,1.31v11.83c0,1.58.3,2.98.91,4.15.6,1.18,1.48,2.11,2.59,2.76,1.11.64,2.42.97,3.9.97s2.72-.33,3.85-.97c1.12-.64,2.03-1.54,2.69-2.66.66-1.12,1-2.4,1-3.8s-.33-2.69-.98-3.81c-.65-1.12-1.55-2.01-2.68-2.65ZM23.82,128.51c0,1.01-.21,1.91-.61,2.67-.4.76-.98,1.36-1.7,1.79-.72.43-1.57.65-2.52.65s-1.79-.22-2.51-.65c-.72-.43-1.29-1.03-1.7-1.79-.41-.76-.63-1.66-.63-2.67s.21-1.93.62-2.68c.41-.75.99-1.35,1.7-1.78.72-.43,1.56-.65,2.51-.65s1.8.22,2.52.65c.72.43,1.3,1.03,1.7,1.78.41.76.61,1.66.61,2.68Z"/>
      <path class="cls-1" d="M39.45,122.05c-1.14-.64-2.44-.97-3.87-.97s-2.73.33-3.87.97c-1.14.64-2.06,1.53-2.72,2.65-.66,1.12-1,2.4-1,3.81s.34,2.7,1,3.81c.66,1.12,1.58,2.01,2.72,2.65,1.14.64,2.44.97,3.87.97s2.73-.33,3.87-.97c1.14-.64,2.06-1.53,2.72-2.65.66-1.12,1-2.4,1-3.81s-.34-2.69-1-3.81c-.66-1.12-1.58-2.01-2.72-2.65ZM40.47,128.51c0,1-.21,1.9-.64,2.67-.42.76-1.01,1.37-1.73,1.81-.73.44-1.57.66-2.52.66s-1.79-.22-2.52-.66c-.73-.44-1.31-1.05-1.73-1.81-.42-.76-.64-1.66-.64-2.67s.21-1.91.64-2.68c.42-.77,1-1.38,1.73-1.8.72-.43,1.57-.65,2.52-.65s1.8.22,2.52.65c.72.43,1.31,1.04,1.73,1.8.43.77.64,1.68.64,2.68Z"/>
      <path class="cls-1" d="M55.32,121.83c-.98-.49-2.16-.74-3.49-.74s-2.48.25-3.48.76c-1.01.51-1.79,1.23-2.34,2.14-.55.91-.82,1.99-.82,3.21v8.37h2.56v-7.83c0-1.43.35-2.53,1.04-3.25.68-.72,1.71-1.08,3.04-1.08s2.36.36,3.06,1.09c.7.73,1.05,1.82,1.05,3.23v7.83h2.56v-8.37c0-1.24-.28-2.32-.84-3.23-.56-.91-1.34-1.63-2.34-2.13Z"/>
      <path class="cls-1" d="M78.48,132.78c-.98.56-2.07.84-3.26.84-1.61,0-2.88-.45-3.76-1.34-.89-.89-1.34-2.16-1.34-3.79s.43-2.88,1.28-3.76c.85-.89,2-1.32,3.5-1.32.74,0,1.46.11,2.12.32.64.2,1.18.49,1.59.85l.24.21.25-.2c.49-.38.74-.83.74-1.33,0-.43-.2-.81-.6-1.14-.36-.29-.94-.54-1.79-.74-.81-.19-1.66-.29-2.53-.29-1.48,0-2.8.31-3.92.91-1.13.61-2.02,1.48-2.65,2.59-.62,1.11-.94,2.43-.94,3.95s.3,2.74.89,3.85c.6,1.12,1.47,2,2.6,2.62,1.11.61,2.47.93,4.02.93.8,0,1.6-.09,2.38-.27.79-.18,1.56-.48,2.29-.89l.34-.19-1.11-2.01-.34.2Z"/>
      <path class="cls-1" d="M91.73,122.05c-1.14-.64-2.44-.97-3.87-.97s-2.73.33-3.87.97c-1.14.64-2.06,1.53-2.72,2.65-.66,1.12-1,2.4-1,3.81s.34,2.7,1,3.81c.66,1.12,1.58,2.01,2.72,2.65,1.14.64,2.44.97,3.87.97s2.73-.33,3.87-.97c1.14-.64,2.06-1.53,2.72-2.65.66-1.12,1-2.4,1-3.81s-.34-2.69-1-3.81c-.66-1.12-1.58-2.01-2.72-2.65ZM92.75,128.51c0,1-.21,1.9-.64,2.67-.42.76-1.01,1.37-1.73,1.81-.73.44-1.57.66-2.52.66s-1.79-.22-2.52-.66c-.73-.44-1.31-1.05-1.73-1.81-.42-.76-.64-1.66-.64-2.67s.21-1.91.64-2.68c.42-.77,1-1.38,1.73-1.8.72-.43,1.57-.65,2.52-.65s1.8.22,2.52.65,1.31,1.04,1.73,1.8c.43.77.64,1.68.64,2.68Z"/>
      <path class="cls-1" d="M109.58,121.46c-.87,0-1.36.48-1.36,1.31v6.52c0,1.41-.35,2.5-1.05,3.23-.69.72-1.72,1.09-3.06,1.09s-2.36-.37-3.04-1.09c-.69-.73-1.04-1.82-1.04-3.23v-7.47l-.19-.11c-.28-.16-.61-.24-1.01-.24-.87,0-1.36.48-1.36,1.31v7.06c0,1.22.28,2.3.84,3.21.56.91,1.34,1.63,2.34,2.14.99.5,2.15.76,3.46.76s2.51-.25,3.5-.74c1.01-.5,1.8-1.22,2.35-2.14.55-.92.82-2,.82-3.22v-8.01l-.19-.11c-.28-.16-.61-.24-1-.24Z"/>
      <path class="cls-1" d="M121.82,121.48c-.67-.26-1.54-.39-2.59-.39-1.94,0-3.43.46-4.4,1.37-.98.92-1.49,2.24-1.49,3.92v9.18h2.56v-8.34c0-1.35.27-2.32.81-2.9.53-.57,1.43-.86,2.68-.86,1.01,0,1.9.19,2.63.55l.22.11.2-.16c.38-.31.58-.7.58-1.14,0-.59-.4-1.04-1.19-1.35Z"/>
      <path class="cls-1" d="M130.96,127.34l-3.07-.35c-2.48-.28-2.48-1.4-2.48-1.77,0-.6.25-1.03.8-1.35.6-.35,1.49-.53,2.63-.53,1.02,0,2.03.14,2.99.4.94.26,1.63.59,2.05.97l.2.19.25-.13c.26-.14.47-.34.61-.59.14-.25.21-.5.21-.75,0-.53-.33-.98-.98-1.35-.55-.31-1.29-.56-2.18-.74-.88-.17-1.84-.26-2.87-.26-1.96,0-3.5.36-4.58,1.08-1.13.75-1.71,1.8-1.71,3.14,0,1.16.44,2.11,1.3,2.82.83.68,2.01,1.12,3.52,1.29l3.07.35c2.64.31,2.64,1.49,2.64,1.88,0,.63-.28,1.1-.86,1.44-.64.38-1.59.57-2.85.57-1.08,0-2.12-.13-3.11-.39-.98-.26-1.79-.58-2.4-.95l-.35-.21-1.11,2.03.27.2c.35.26.88.51,1.64.76.72.24,1.55.44,2.45.61.91.17,1.81.25,2.67.25,1.85,0,3.37-.4,4.51-1.19,1.19-.82,1.79-1.94,1.79-3.33,0-2.32-1.7-3.7-5.06-4.08Z"/>
    </g>
    <g>
      <g>
        <path class="cls-1" d="M12.13,83.74c-.36-.39-.54-.85-.54-1.39s.18-1,.54-1.39c.36-.39.82-.58,1.39-.58s1.03.19,1.39.58c.36.39.54.85.54,1.39s-.18,1-.54,1.39c-.36.39-.82.58-1.39.58s-1.03-.19-1.39-.58ZM14.85,109.24h-2.66v-18.51c0-.91.48-1.37,1.45-1.37.48,0,.89.09,1.21.28v19.6Z"/>
        <path class="cls-1" d="M14.97,109.36h-2.91v-18.64c0-.98.54-1.49,1.57-1.49.5,0,.93.1,1.27.3l.06.04v19.8ZM12.32,109.11h2.41v-19.4c-.29-.15-.66-.23-1.08-.23-.9,0-1.32.4-1.32,1.24v18.39ZM13.52,84.45c-.6,0-1.1-.21-1.48-.62h0c-.38-.41-.58-.91-.58-1.47s.19-1.06.58-1.47c.38-.41.88-.62,1.48-.62s1.09.21,1.48.62c.38.41.58.91.58,1.47s-.19,1.06-.58,1.47c-.39.41-.88.62-1.48.62ZM13.52,80.51c-.53,0-.96.18-1.3.54-.34.37-.51.79-.51,1.3s.17.94.51,1.3h0c.34.37.76.54,1.3.54s.96-.18,1.3-.54c.34-.37.51-.79.51-1.3s-.17-.93-.51-1.3c-.34-.37-.76-.54-1.3-.54Z"/>
      </g>
      <g>
        <path class="cls-1" d="M20.04,97.32c0-1.72.38-3.21,1.15-4.49.76-1.27,1.85-2.27,3.26-2.98,1.41-.71,3.05-1.07,4.93-1.07s3.56.35,4.95,1.05c1.39.7,2.48,1.68,3.26,2.96.78,1.27,1.17,2.78,1.17,4.53v11.91h-2.66v-11.11c0-2.28-.58-4.02-1.73-5.23-1.15-1.21-2.82-1.81-4.99-1.81s-3.83.6-4.97,1.79c-1.14,1.19-1.71,2.94-1.71,5.25v11.11h-2.66v-11.91Z"/>
        <path class="cls-1" d="M38.88,109.36h-2.91v-11.23c0-2.24-.57-3.97-1.7-5.15-1.12-1.18-2.77-1.77-4.9-1.77s-3.77.59-4.88,1.75c-1.11,1.17-1.68,2.9-1.68,5.17v11.23h-2.91v-12.04c0-1.73.39-3.26,1.17-4.55s1.89-2.31,3.31-3.03c1.42-.72,3.1-1.08,4.99-1.08s3.6.36,5.01,1.06c1.41.71,2.52,1.72,3.31,3,.79,1.29,1.19,2.84,1.19,4.59v12.04ZM36.22,109.11h2.41v-11.79c0-1.71-.39-3.21-1.15-4.46-.76-1.25-1.84-2.23-3.21-2.91-1.37-.68-3.02-1.03-4.9-1.03s-3.49.35-4.87,1.05c-1.38.7-2.46,1.68-3.21,2.93-.75,1.25-1.13,2.74-1.13,4.42v11.79h2.41v-10.98c0-2.33.59-4.12,1.75-5.34,1.16-1.21,2.86-1.83,5.06-1.83s3.91.62,5.08,1.85c1.17,1.23,1.76,3.02,1.76,5.32v10.98Z"/>
      </g>
      <g>
        <path class="cls-1" d="M61.09,103.64c0,1.88-.8,3.37-2.41,4.49-1.61,1.11-3.74,1.67-6.4,1.67-1.26,0-2.56-.12-3.88-.36-1.33-.24-2.52-.54-3.58-.89-1.06-.35-1.82-.7-2.27-1.05l1.13-2.05c.97.59,2.21,1.09,3.74,1.49,1.53.4,3.13.6,4.79.6,1.99,0,3.5-.31,4.55-.93,1.05-.62,1.57-1.5,1.57-2.66,0-1.9-1.49-3.03-4.47-3.38l-4.59-.52c-2.15-.24-3.8-.84-4.95-1.79-1.15-.95-1.73-2.21-1.73-3.76,0-1.8.76-3.2,2.29-4.21,1.53-1.01,3.7-1.51,6.52-1.51,1.5,0,2.89.13,4.17.38,1.27.26,2.3.6,3.08,1.05.78.44,1.17.95,1.17,1.51,0,.27-.08.54-.24.82-.16.28-.39.5-.68.66-.7-.64-1.8-1.17-3.3-1.59-1.5-.42-3.05-.62-4.63-.62-1.82,0-3.23.29-4.23.87-.99.58-1.49,1.42-1.49,2.52,0,1.82,1.41,2.9,4.23,3.22l4.59.52c4.7.54,7.04,2.37,7.04,5.51Z"/>
        <path class="cls-1" d="M52.28,109.92c-1.26,0-2.58-.12-3.91-.36-1.33-.24-2.54-.54-3.6-.89-1.07-.35-1.85-.71-2.31-1.07l-.08-.07,1.24-2.26.11.07c.95.58,2.2,1.08,3.71,1.47,1.51.4,3.11.6,4.76.6,1.96,0,3.46-.31,4.48-.91,1.01-.6,1.51-1.43,1.51-2.55,0-1.85-1.42-2.91-4.36-3.26l-4.59-.52c-2.16-.24-3.85-.85-5.02-1.82-1.18-.97-1.78-2.27-1.78-3.86,0-1.83.79-3.28,2.35-4.31,1.54-1.01,3.76-1.53,6.59-1.53,1.5,0,2.91.13,4.19.38,1.29.26,2.33.62,3.12,1.06.82.46,1.23,1.01,1.23,1.62,0,.29-.09.59-.26.89-.17.3-.42.54-.73.71l-.08.04-.07-.06c-.68-.63-1.77-1.15-3.25-1.56-1.49-.41-3.03-.62-4.59-.62-1.79,0-3.19.29-4.16.85-.96.56-1.43,1.35-1.43,2.41,0,1.77,1.35,2.78,4.12,3.1l4.59.52c4.75.54,7.15,2.44,7.15,5.64,0,1.91-.83,3.46-2.47,4.59-1.62,1.12-3.8,1.69-6.47,1.69ZM42.7,107.47c.45.32,1.17.64,2.15.96,1.05.34,2.25.64,3.57.88,1.31.24,2.61.36,3.86.36,2.62,0,4.75-.55,6.33-1.65,1.57-1.08,2.36-2.56,2.36-4.38,0-3.05-2.33-4.86-6.93-5.39l-4.59-.52c-2.88-.33-4.34-1.45-4.34-3.34,0-1.14.52-2.02,1.55-2.62,1.01-.58,2.45-.88,4.29-.88,1.59,0,3.15.21,4.66.63,1.46.41,2.57.93,3.28,1.56.24-.15.43-.34.56-.57.15-.26.22-.52.22-.76,0-.51-.37-.98-1.1-1.4-.76-.43-1.78-.78-3.04-1.03-1.26-.25-2.66-.38-4.14-.38-2.78,0-4.95.5-6.45,1.49-1.49.98-2.24,2.36-2.24,4.1,0,1.51.57,2.74,1.69,3.67,1.13.93,2.77,1.53,4.88,1.76l4.59.52c3.04.36,4.58,1.53,4.58,3.5,0,1.2-.55,2.13-1.63,2.76-1.06.63-2.61.94-4.61.94-1.67,0-3.29-.21-4.82-.61-1.48-.39-2.71-.87-3.66-1.44l-1.01,1.84Z"/>
      </g>
      <g>
        <path class="cls-1" d="M64.39,85.33c0-.91.48-1.37,1.45-1.37.48,0,.89.09,1.21.28v5.11h7.08c.99,0,1.49.44,1.49,1.33,0,.35-.08.71-.24,1.09h-8.33v11.67c0,1.31.35,2.33,1.05,3.04.7.71,1.7,1.07,3.02,1.07,1.48,0,2.82-.39,4.02-1.17l1.17,1.73c-.67.51-1.52.92-2.56,1.23-1.03.31-2.09.46-3.16.46-1.93,0-3.45-.52-4.55-1.57-1.1-1.05-1.65-2.5-1.65-4.35v-18.55Z"/>
        <path class="cls-1" d="M70.59,109.92c-1.96,0-3.52-.54-4.63-1.6-1.12-1.07-1.69-2.56-1.69-4.44v-18.55c0-.98.54-1.49,1.57-1.49.5,0,.93.1,1.27.3l.06.04v5.06h6.96c1.06,0,1.61.5,1.61,1.45,0,.37-.08.75-.25,1.14l-.03.08h-8.29v11.55c0,1.28.34,2.27,1.01,2.95.67.68,1.66,1.03,2.93,1.03,1.45,0,2.78-.39,3.96-1.15l.1-.07,1.3,1.93-.09.07c-.68.52-1.55.94-2.59,1.25-1.04.31-2.12.47-3.2.47ZM65.84,84.09c-.89,0-1.32.41-1.32,1.24v18.55c0,1.81.54,3.24,1.61,4.26,1.07,1.02,2.57,1.54,4.46,1.54,1.06,0,2.11-.15,3.12-.46.97-.29,1.78-.67,2.42-1.14l-1.03-1.53c-1.2.74-2.54,1.12-3.99,1.12-1.34,0-2.39-.37-3.11-1.1-.72-.73-1.08-1.78-1.08-3.13v-11.8h8.37c.13-.33.2-.65.2-.96,0-.82-.43-1.2-1.36-1.2h-7.21v-5.16c-.29-.15-.65-.23-1.08-.23Z"/>
      </g>
      <g>
        <path class="cls-1" d="M78.82,83.74c-.36-.39-.54-.85-.54-1.39s.18-1,.54-1.39c.36-.39.82-.58,1.39-.58s1.03.19,1.39.58c.36.39.54.85.54,1.39s-.18,1-.54,1.39c-.36.39-.82.58-1.39.58s-1.03-.19-1.39-.58ZM81.53,109.24h-2.66v-18.51c0-.91.48-1.37,1.45-1.37.48,0,.89.09,1.21.28v19.6Z"/>
        <path class="cls-1" d="M81.66,109.36h-2.91v-18.64c0-.98.54-1.49,1.57-1.49.5,0,.93.1,1.27.3l.06.04v19.8ZM79,109.11h2.41v-19.4c-.29-.15-.66-.23-1.08-.23-.9,0-1.32.4-1.32,1.24v18.39ZM80.21,84.45c-.6,0-1.1-.21-1.48-.62h0c-.38-.41-.58-.91-.58-1.47s.19-1.06.58-1.47c.38-.41.88-.62,1.48-.62s1.09.21,1.48.62c.38.41.58.91.58,1.47s-.19,1.06-.58,1.47c-.39.41-.88.62-1.48.62ZM80.21,80.51c-.53,0-.96.18-1.3.54-.34.37-.51.79-.51,1.3s.17.94.51,1.3h0c.34.37.76.54,1.3.54s.96-.18,1.3-.54c.34-.37.51-.79.51-1.3s-.17-.93-.51-1.3c-.34-.37-.76-.54-1.3-.54Z"/>
      </g>
      <g>
        <path class="cls-1" d="M86.73,85.33c0-.91.48-1.37,1.45-1.37.48,0,.89.09,1.21.28v5.11h7.08c.99,0,1.49.44,1.49,1.33,0,.35-.08.71-.24,1.09h-8.33v11.67c0,1.31.35,2.33,1.05,3.04.7.71,1.7,1.07,3.02,1.07,1.48,0,2.82-.39,4.02-1.17l1.17,1.73c-.67.51-1.52.92-2.56,1.23-1.03.31-2.09.46-3.16.46-1.93,0-3.45-.52-4.55-1.57-1.1-1.05-1.65-2.5-1.65-4.35v-18.55Z"/>
        <path class="cls-1" d="M92.92,109.92c-1.96,0-3.52-.54-4.63-1.6-1.12-1.07-1.69-2.56-1.69-4.44v-18.55c0-.98.54-1.49,1.57-1.49.5,0,.93.1,1.27.3l.06.04v5.06h6.96c1.33,0,1.61.79,1.61,1.45,0,.37-.08.75-.25,1.14l-.03.08h-8.29v11.55c0,1.28.34,2.27,1.01,2.95.67.68,1.66,1.03,2.93,1.03,1.45,0,2.78-.39,3.96-1.15l.1-.07,1.3,1.93-.09.07c-.68.52-1.55.94-2.59,1.25-1.04.31-2.12.47-3.2.47ZM88.17,84.09c-.89,0-1.32.41-1.32,1.24v18.55c0,1.81.54,3.24,1.61,4.26,1.07,1.02,2.57,1.54,4.46,1.54,1.06,0,2.11-.15,3.12-.46.96-.29,1.78-.67,2.42-1.14l-1.03-1.53c-1.19.74-2.54,1.12-3.99,1.12-1.34,0-2.39-.37-3.11-1.1-.72-.73-1.08-1.78-1.08-3.13v-11.8h8.37c.13-.33.2-.65.2-.96,0-.81-.45-1.2-1.36-1.2h-7.21v-5.16c-.29-.15-.66-.23-1.08-.23Z"/>
      </g>
      <g>
        <path class="cls-1" d="M119.12,101.27c0,1.72-.38,3.22-1.15,4.51-.76,1.29-1.85,2.28-3.26,2.98-1.41.7-3.07,1.05-4.97,1.05s-3.52-.36-4.91-1.07c-1.4-.71-2.48-1.7-3.26-2.98-.78-1.27-1.17-2.77-1.17-4.49v-10.54c0-.91.48-1.37,1.45-1.37.48,0,.89.09,1.21.28v10.83c0,2.28.57,4.02,1.71,5.23,1.14,1.21,2.8,1.81,4.97,1.81s3.84-.6,4.99-1.81c1.15-1.21,1.73-2.95,1.73-5.23v-9.74c0-.91.48-1.37,1.45-1.37.48,0,.89.09,1.21.28v11.63Z"/>
        <path class="cls-1" d="M109.75,109.92c-1.89,0-3.56-.36-4.97-1.08-1.41-.72-2.52-1.74-3.31-3.02-.79-1.29-1.19-2.82-1.19-4.55v-10.54c0-.98.54-1.49,1.57-1.49.5,0,.93.1,1.27.3l.06.04v10.9c0,2.24.56,3.97,1.68,5.15,1.11,1.18,2.75,1.77,4.88,1.77s3.77-.6,4.9-1.77c1.13-1.18,1.7-2.91,1.7-5.15v-9.74c0-.98.54-1.49,1.57-1.49.5,0,.93.1,1.27.3l.06.04v11.7c0,1.73-.39,3.27-1.17,4.57-.77,1.3-1.89,2.32-3.31,3.03-1.42.7-3.11,1.06-5.03,1.06ZM101.86,89.48c-.9,0-1.32.4-1.32,1.24v10.54c0,1.69.39,3.17,1.15,4.42.76,1.25,1.84,2.24,3.21,2.93,1.37.7,3,1.05,4.85,1.05s3.53-.35,4.91-1.03c1.38-.68,2.46-1.67,3.21-2.93.75-1.26,1.13-2.76,1.13-4.44v-11.56c-.29-.15-.66-.23-1.08-.23-.9,0-1.32.4-1.32,1.24v9.74c0,2.3-.59,4.09-1.76,5.32-1.17,1.23-2.88,1.85-5.08,1.85s-3.9-.62-5.06-1.85c-1.16-1.23-1.75-3.02-1.75-5.32v-10.75c-.29-.15-.65-.23-1.08-.23Z"/>
      </g>
      <g>
        <path class="cls-1" d="M124.11,85.33c0-.91.48-1.37,1.45-1.37.48,0,.89.09,1.21.28v5.11h7.08c.99,0,1.49.44,1.49,1.33,0,.35-.08.71-.24,1.09h-8.33v11.67c0,1.31.35,2.33,1.05,3.04.7.71,1.7,1.07,3.02,1.07,1.48,0,2.82-.39,4.02-1.17l1.17,1.73c-.67.51-1.52.92-2.56,1.23-1.03.31-2.09.46-3.16.46-1.93,0-3.45-.52-4.55-1.57-1.1-1.05-1.65-2.5-1.65-4.35v-18.55Z"/>
        <path class="cls-1" d="M130.31,109.92c-1.96,0-3.52-.54-4.63-1.6-1.12-1.07-1.69-2.56-1.69-4.44v-18.55c0-.98.54-1.49,1.57-1.49.5,0,.93.1,1.27.3l.06.04v5.06h6.96c1.33,0,1.61.79,1.61,1.45,0,.37-.08.75-.25,1.14l-.03.08h-8.29v11.55c0,1.28.34,2.27,1.01,2.95.67.68,1.66,1.03,2.93,1.03,1.45,0,2.78-.39,3.96-1.15l.1-.07,1.3,1.93-.09.07c-.68.52-1.55.94-2.59,1.25s-2.12.47-3.2.47ZM125.56,84.09c-.9,0-1.32.39-1.32,1.24v18.55c0,1.81.54,3.24,1.61,4.26,1.07,1.02,2.57,1.54,4.46,1.54,1.06,0,2.11-.15,3.12-.46.96-.29,1.78-.67,2.42-1.14l-1.03-1.53c-1.19.74-2.54,1.12-3.99,1.12-1.34,0-2.39-.37-3.11-1.1-.72-.73-1.08-1.78-1.08-3.13v-11.8h8.37c.13-.33.2-.65.2-.96,0-.81-.45-1.2-1.36-1.2h-7.21v-5.16c-.29-.15-.66-.23-1.08-.23Z"/>
      </g>
    </g>
  </g>
</svg>