<?xml version="1.0" encoding="UTF-8"?>
<svg id="Layer_1" data-name="Layer 1" xmlns="http://www.w3.org/2000/svg" viewBox="0 0 592.12 212.52">
  <defs>
    <style>
      .cls-1 {
        stroke-width: 0px;
      }
    </style>
  </defs>
  <path class="cls-1" d="m263.65,12.66c-5.06,0-9.17,4.23-9.17,9.43v39.42l-32.17-37.49c-4.99-7.11-13.06-11.36-21.65-11.36h-2.82v73.85c0,5.23,4.14,9.49,9.23,9.49s9.23-4.26,9.23-9.49v-39.63l32.05,37.67c4.98,7.17,13.08,11.45,21.65,11.45h2.82V22.08c0-5.2-4.11-9.43-9.17-9.43Z"/>
  <path class="cls-1" d="m87.09,51.55c2.62-4.05,4.04-8.81,4.04-13.66,0-13.87-11.28-25.15-25.15-25.15H12.69v83.18h58.19c13.87,0,25.15-11.28,25.15-25.15,0-7.47-3.3-14.46-8.94-19.22Zm-21.42-5.93h-10.37c-4.81,0-8.71,3.9-8.71,8.71h0c0,4.81,3.9,8.71,8.71,8.71h15.27c3.74,0,7.17,2.52,7.89,6.19.96,4.94-2.82,9.27-7.58,9.27H30.11V30.15h35.87c4.77,0,8.54,4.34,7.58,9.27-.71,3.67-4.15,6.19-7.89,6.19Z"/>
  <path class="cls-1" d="m263.65,116.73c-5.06,0-9.17,4.16-9.17,9.27v40.64c0,8.94-8.56,16.21-19.09,16.21s-19.09-7.27-19.09-16.21v-40.64c0-5.11-4.11-9.27-9.29-9.27s-9.17,4.16-9.17,9.27v40.64c0,18.44,16.84,33.43,37.55,33.43s37.43-15,37.43-33.43v-40.64c0-5.11-4.11-9.27-9.17-9.27Z"/>
  <path class="cls-1" d="m340.62,164.59c7.79-4.94,12.43-12.99,12.43-21.55,0-14.26-12.79-26.32-27.93-26.32h-39.55v73.85c0,5.23,4.14,9.49,9.23,9.49s9.23-4.26,9.23-9.49v-56.44h21.08c4.78,0,9.46,4.41,9.46,8.9,0,2.49-1.68,5.39-4.16,7.21l-18.66,13.52,19.09,27.01c3.93,5.51,10.25,8.8,16.9,8.8h11.55l-22.96-32.02,4.27-2.97Z"/>
  <path class="cls-1" d="m398.8,147.62h0s0,0,0,0c-8.75-2.76-17.01-5.37-16.67-9.78.07-1.02.42-1.72,1.17-2.32,2.05-1.67,6.58-2.23,12.16-1.48,3.73.47,7.48,1.92,11.15,4.31,5.92,3.86,13.67,3.12,18.85-1.81l1.82-1.74-1.52-2.01c-6.72-8.84-17.39-14.58-29.28-15.75-10.94-1.12-19.85.91-25.81,5.85-4.24,3.51-6.73,8.35-7.21,14.01-1.42,18.38,15.51,23.94,29.13,28.41,8.98,2.95,17.46,5.73,17.77,10.96.09,1.35-.35,2.45-1.38,3.46-2.44,2.38-7.54,3.56-13.31,3.07-5.19-.39-10.22-2.5-14.94-6.25-5.86-4.66-14.24-4.55-19.92.23l-1.99,1.68,1.52,2.12c5.96,8.31,18.62,18.37,34.63,19.37.97.07,2.19.13,3.6.13,7.05,0,16.92-1.38,23.85-7.96,4.78-4.53,7.13-10.61,6.99-18.07-.39-16.89-17.13-22.17-30.58-26.42Z"/>
  <path class="cls-1" d="m146.48,116.53c-23.12,0-41.87,18.75-41.87,41.87s18.75,41.87,41.87,41.87,41.87-18.75,41.87-41.87-18.75-41.87-41.87-41.87Zm0,67.02c-13.89,0-25.15-11.26-25.15-25.15s11.26-25.15,25.15-25.15,25.15,11.26,25.15,25.15-11.26,25.15-25.15,25.15Z"/>
  <path class="cls-1" d="m146.48,12.26c-23.12,0-41.87,18.75-41.87,41.87s18.75,41.87,41.87,41.87,41.87-18.75,41.87-41.87-18.75-41.87-41.87-41.87Zm0,67.02c-13.89,0-25.15-11.26-25.15-25.15s11.26-25.15,25.15-25.15,25.15,11.26,25.15,25.15-11.26,25.15-25.15,25.15Z"/>
  <g>
    <path class="cls-1" d="m506.08,133.04c0,3.69,2.99,6.69,6.69,6.69s6.69-2.99,6.69-6.69-2.99-6.69-6.69-6.69-6.69,2.99-6.69,6.69Z"/>
    <path class="cls-1" d="m486,133.04c0,3.69,2.99,6.69,6.69,6.69s6.69-2.99,6.69-6.69-2.99-6.69-6.69-6.69-6.69,2.99-6.69,6.69Z"/>
    <path class="cls-1" d="m526.22,133.04c0,3.69,2.99,6.69,6.69,6.69s6.69-2.99,6.69-6.69-2.99-6.69-6.69-6.69-6.69,2.99-6.69,6.69Z"/>
    <path class="cls-1" d="m544.94,157.28c-7.64,10.13-19.95,16.53-33.73,16.01-20.88-.79-37.91-17.8-38.7-38.69-.02-.53-.02-1.05-.02-1.58h.04v-1.73c.91-21.45,18.57-38.56,40.24-38.56,13.32,0,25.12,6.46,32.45,16.42,7.83,10.63,20.01,17.19,33.21,17.19h1.09c-3.45-34.87-33.59-61.89-69.71-60.34-13.94.6-26.79,5.53-37.28,13.45v-40.36c0-14.83-12.02-26.84-26.85-26.84v120.78h.02c0,37.05,30.02,67.09,67.06,67.09,34.79,0,63.4-26.49,66.75-60.4h-.12c-13.64,0-26.25,6.68-34.46,17.56Z"/>
  </g>
  <g>
    <circle class="cls-1" cx="54.47" cy="158.4" r="4.17" transform="translate(-112.72 148.1) rotate(-67.5)"/>
    <path class="cls-1" d="m37.76,158.4c0,2.31,1.87,4.17,4.17,4.17s4.17-1.87,4.17-4.17c0-2.31-1.87-4.17-4.17-4.17s-4.17,1.87-4.17,4.17Z"/>
    <circle class="cls-1" cx="67.03" cy="158.4" r="4.17" transform="translate(-102.95 132.14) rotate(-58.28)"/>
    <path class="cls-1" d="m74.54,173.53c-4.77,6.32-12.45,10.32-21.05,9.99-13.03-.49-23.66-11.11-24.15-24.14-.55-14.34,10.91-26.13,25.13-26.13,8.31,0,15.68,4.03,20.25,10.25,4.89,6.63,12.49,10.73,20.73,10.73h.68c-2.15-21.76-20.97-38.62-43.51-37.65-21.88.94-39.49,18.93-40.01,40.82-.56,23.59,18.4,42.88,41.86,42.88,21.71,0,39.57-16.53,41.66-37.69h-.07c-8.51,0-16.38,4.17-21.51,10.96Z"/>
  </g>
  <circle class="cls-1" cx="356.75" cy="85.51" r="12.69" transform="translate(141.23 382.38) rotate(-67.5)"/>
  <path class="cls-1" d="m285.58,85.51c0,7.01,5.68,12.69,12.69,12.69s12.69-5.68,12.69-12.69c0-7.01-5.68-12.69-12.69-12.69s-12.69,5.68-12.69,12.69Z"/>
  <circle class="cls-1" cx="415.23" cy="85.51" r="12.69" transform="translate(124.19 393.77) rotate(-58.28)"/>
</svg>