<?xml version="1.0" encoding="UTF-8"?>
<svg id="Layer_1" data-name="Layer 1" xmlns="http://www.w3.org/2000/svg" viewBox="0 0 368.13 513">
  <defs>
    <style>
      .cls-1 {
        fill: #072e41;
        stroke-width: 0px;
      }
    </style>
  </defs>
  <path class="cls-1" d="m275.59,379.6c-18.49,31.36-52.6,52.23-91.4,52.23-58.51,0-106.1-47.63-106.05-106.15v-.03c0-1.88.05-3.78.16-5.68,2.86-53.29,45.67-96.6,98.94-100,42.04-2.69,79.46,19.18,98.89,52.93,16.57,28.76,48.09,45.56,81.24,43.82h0c-2.32-44.35-21.49-85.74-53.96-116.55-32.47-30.82-74.81-47.79-119.22-47.79-38.78,0-75.72,12.83-106.05,36.5v-103.88c0-37.21-30.16-67.37-67.37-67.37h0v308.17c0,46.07,18.11,89.55,50.99,122.43,32.88,32.88,76.36,50.99,122.43,50.99s86.74-16.97,119.22-47.78c32.47-30.82,51.64-72.21,53.96-116.55h0c-33.53-1.76-64.72,15.82-81.77,44.74Z"/>
  <g>
    <circle class="cls-1" cx="134.93" cy="325.78" r="17.63"/>
    <circle class="cls-1" cx="184.17" cy="325.78" r="17.63"/>
    <circle class="cls-1" cx="233.41" cy="325.78" r="17.63"/>
  </g>
</svg>